<?xml version="1.0" encoding="UTF-8" standalone="no"?>
<!-- Created with Inkscape (http://www.inkscape.org/) -->

<svg
   xmlns:i="http://ns.adobe.com/AdobeIllustrator/10.0/"
   xmlns:dc="http://purl.org/dc/elements/1.1/"
   xmlns:cc="http://creativecommons.org/ns#"
   xmlns:rdf="http://www.w3.org/1999/02/22-rdf-syntax-ns#"
   xmlns:svg="http://www.w3.org/2000/svg"
   xmlns="http://www.w3.org/2000/svg"
   xmlns:sodipodi="http://sodipodi.sourceforge.net/DTD/sodipodi-0.dtd"
   xmlns:inkscape="http://www.inkscape.org/namespaces/inkscape"
   width="48"
   height="48"
   id="svg2992"
   version="1.1"
   inkscape:version="0.47 r22583"
   sodipodi:docname="nokicert.svg"
   inkscape:export-filename="/home/fkooman/nokicert.png"
   inkscape:export-xdpi="120"
   inkscape:export-ydpi="120">
  <defs
     id="defs2994">
    <inkscape:perspective
       sodipodi:type="inkscape:persp3d"
       inkscape:vp_x="0 : 526.18109 : 1"
       inkscape:vp_y="0 : 1000 : 0"
       inkscape:vp_z="744.09448 : 526.18109 : 1"
       inkscape:persp3d-origin="372.04724 : 350.78739 : 1"
       id="perspective3000" />
    <inkscape:perspective
       id="perspective2979"
       inkscape:persp3d-origin="0.5 : 0.33333333 : 1"
       inkscape:vp_z="1 : 0.5 : 1"
       inkscape:vp_y="0 : 1000 : 0"
       inkscape:vp_x="0 : 0.5 : 1"
       sodipodi:type="inkscape:persp3d" />
    <inkscape:perspective
       id="perspective3161"
       inkscape:persp3d-origin="0.5 : 0.33333333 : 1"
       inkscape:vp_z="1 : 0.5 : 1"
       inkscape:vp_y="0 : 1000 : 0"
       inkscape:vp_x="0 : 0.5 : 1"
       sodipodi:type="inkscape:persp3d" />
    <inkscape:perspective
       id="perspective3204"
       inkscape:persp3d-origin="0.5 : 0.33333333 : 1"
       inkscape:vp_z="1 : 0.5 : 1"
       inkscape:vp_y="0 : 1000 : 0"
       inkscape:vp_x="0 : 0.5 : 1"
       sodipodi:type="inkscape:persp3d" />
  </defs>
  <sodipodi:namedview
     id="base"
     pagecolor="#ffffff"
     bordercolor="#666666"
     borderopacity="1.0"
     inkscape:pageopacity="0.0"
     inkscape:pageshadow="2"
     inkscape:zoom="11.645833"
     inkscape:cx="13.18068"
     inkscape:cy="24"
     inkscape:document-units="px"
     inkscape:current-layer="layer1"
     showgrid="false"
     inkscape:window-width="1185"
     inkscape:window-height="814"
     inkscape:window-x="0"
     inkscape:window-y="25"
     inkscape:window-maximized="1" />
  <metadata
     id="metadata2997">
    <rdf:RDF>
      <cc:Work
         rdf:about="">
        <dc:format>image/svg+xml</dc:format>
        <dc:type
           rdf:resource="http://purl.org/dc/dcmitype/StillImage" />
        <dc:title></dc:title>
      </cc:Work>
    </rdf:RDF>
  </metadata>
  <g
     inkscape:label="Layer 1"
     inkscape:groupmode="layer"
     id="layer1"
     transform="translate(0,-1004.3622)">
    <path
       style="fill:#000000;fill-opacity:1;fill-rule:nonzero;stroke:none"
       d="m 29.777254,1005.6658 c -0.914447,0 -1.650655,0.7362 -1.650655,1.6508 l 0,4.9519 -11.554483,0 c -1.371693,0 -2.475982,1.1042 -2.475982,2.476 l 0,33.8381 c 0,1.3717 1.104289,2.4759 2.475982,2.4759 l 14.855792,0 c 1.371671,0 2.475958,-1.1042 2.475958,-2.4759 l 0,-33.8381 c 0,-1.3718 -1.104287,-2.476 -2.475958,-2.476 l 0,-4.9519 c 0,-0.9146 -0.736184,-1.6508 -1.650654,-1.6508 z m -12.792486,9.0787 14.030465,0 c 0.457223,0 0.825328,0.368 0.825328,0.8253 l 0,14.8557 c 0,0.4572 -0.368105,0.8252 -0.825328,0.8252 l -14.030464,0 c -0.457226,0 -0.825328,-0.368 -0.825328,-0.8252 l 0,-14.8557 c 0,-0.4573 0.368102,-0.8253 0.825328,-0.8253 z m 0,18.1571 2.47598,0 c 0.457224,0 0.825304,0.368 0.825304,0.8253 l 0,2.4759 c 0,0.4573 -0.36808,0.8253 -0.825304,0.8253 l -2.47598,0 c -0.457225,0 -0.825327,-0.368 -0.825327,-0.8253 l 0,-2.4759 c 0,-0.4573 0.368102,-0.8253 0.825327,-0.8253 z m 5.777264,0 2.475958,0 c 0.457224,0 0.825328,0.368 0.825328,0.8253 l 0,2.4759 c 0,0.4573 -0.368104,0.8253 -0.825328,0.8253 l -2.475958,0 c -0.457246,0 -0.825327,-0.368 -0.825327,-0.8253 l 0,-2.4759 c 0,-0.4573 0.368081,-0.8253 0.825327,-0.8253 z m 5.777243,0 2.475958,0 c 0.457223,0 0.825327,0.368 0.825327,0.8253 l 0,2.4759 c 0,0.4573 -0.368104,0.8253 -0.825327,0.8253 l -2.475958,0 c -0.457224,0 -0.825328,-0.368 -0.825328,-0.8253 l 0,-2.4759 c 0,-0.4573 0.368104,-0.8253 0.825328,-0.8253 z m -11.554507,5.7771 2.47598,0 c 0.457224,0 0.825304,0.3681 0.825304,0.8254 l 0,2.4758 c 0,0.4573 -0.36808,0.8253 -0.825304,0.8253 l -2.47598,0 c -0.457225,0 -0.825327,-0.368 -0.825327,-0.8253 l 0,-2.4758 c 0,-0.4573 0.368102,-0.8254 0.825327,-0.8254 z m 5.777264,0 2.475958,0 c 0.457224,0 0.825328,0.3681 0.825328,0.8254 l 0,2.4758 c 0,0.4573 -0.368104,0.8253 -0.825328,0.8253 l -2.475958,0 c -0.457246,0 -0.825327,-0.368 -0.825327,-0.8253 l 0,-2.4758 c 0,-0.4573 0.368081,-0.8254 0.825327,-0.8254 z m 5.777243,0 2.475958,0 c 0.457223,0 0.825327,0.3681 0.825327,0.8254 l 0,2.4758 c 0,0.4573 -0.368104,0.8253 -0.825327,0.8253 l -2.475958,0 c -0.457224,0 -0.825328,-0.368 -0.825328,-0.8253 l 0,-2.4758 c 0,-0.4573 0.368104,-0.8254 0.825328,-0.8254 z m -11.554507,5.7773 2.47598,0 c 0.457224,0 0.825304,0.3681 0.825304,0.8253 l 0,2.476 c 0,0.4572 -0.36808,0.8253 -0.825304,0.8253 l -2.47598,0 c -0.457225,0 -0.825327,-0.3681 -0.825327,-0.8253 l 0,-2.476 c 0,-0.4572 0.368102,-0.8253 0.825327,-0.8253 z m 5.777264,0 2.475958,0 c 0.457224,0 0.825328,0.3681 0.825328,0.8253 l 0,2.476 c 0,0.4572 -0.368104,0.8253 -0.825328,0.8253 l -2.475958,0 c -0.457246,0 -0.825327,-0.3681 -0.825327,-0.8253 l 0,-2.476 c 0,-0.4572 0.368081,-0.8253 0.825327,-0.8253 z m 5.777243,0 2.475958,0 c 0.457223,0 0.825327,0.3681 0.825327,0.8253 l 0,2.476 c 0,0.4572 -0.368104,0.8253 -0.825327,0.8253 l -2.475958,0 c -0.457224,0 -0.825328,-0.3681 -0.825328,-0.8253 l 0,-2.476 c 0,-0.4572 0.368104,-0.8253 0.825328,-0.8253 z"
       id="rect2890" />
    <g
       id="g3738"
       transform="matrix(0.18100003,0,0,0.18100003,-68.198192,966.22024)">
      <path
         style="fill-rule:evenodd;stroke:#000000;stroke-width:0.036;stroke-miterlimit:10"
         id="path2740"
         stroke-miterlimit="10"
         i:knockout="Off"
         d="m 481.25,284.811 c 2.197,4.896 5.076,9.468 8.641,14.148 3.455,4.607 7.271,9.432 12.564,13.355 5.291,3.816 11.482,7.092 18.863,9.685 l -31.176,-0.792 -8.279,17.136 c -6.518,-4.356 -11.773,-8.964 -15.912,-13.968 -4.068,-5.076 -6.77,-10.692 -8.928,-16.021 -2.305,-5.328 -3.996,-10.548 -4.934,-15.804 l 29.161,-7.739 z"
         clip-rule="evenodd" />
      <path
         style="fill:#ff0000;fill-opacity:1;fill-rule:evenodd;stroke:#000000;stroke-width:0.036;stroke-miterlimit:10"
         id="path2742"
         stroke-miterlimit="10"
         i:knockout="Off"
         d="m 478.91,287.69 c 2.16,3.672 4.465,7.38 7.309,11.269 2.699,3.852 5.436,8.424 9.18,11.771 3.709,3.204 7.885,5.688 12.816,7.596 l -20.953,-1.044 -7.055,15.192 c -4.572,-3.132 -8.641,-6.84 -12.061,-11.268 -3.564,-4.465 -6.588,-11.089 -8.641,-15.444 -2.051,-4.464 -3.131,-8.172 -3.383,-11.269 l 22.788,-6.803 z"
         clip-rule="evenodd" />
      <path
         style="fill-rule:evenodd;stroke:#000000;stroke-width:0.036;stroke-miterlimit:10"
         id="path2744"
         stroke-miterlimit="10"
         i:knockout="Off"
         d="m 438.086,288.267 c -2.268,4.896 -5.146,9.468 -8.639,14.147 -3.564,4.608 -7.381,9.433 -12.564,13.356 -5.328,3.816 -11.52,7.092 -18.865,9.684 l 31.178,-0.792 8.279,17.137 c 6.48,-4.429 11.736,-8.964 15.912,-14.004 4.031,-5.148 6.588,-10.62 8.928,-15.984 2.268,-5.364 3.924,-10.512 4.969,-15.84 l -29.198,-7.704 z"
         clip-rule="evenodd" />
      <path
         style="fill:#ff0000;fill-opacity:1;fill-rule:evenodd;stroke:#000000;stroke-width:0.036;stroke-miterlimit:10"
         id="path2746"
         stroke-miterlimit="10"
         i:knockout="Off"
         d="m 440.463,291.146 c -2.16,3.6 -4.607,7.344 -7.344,11.232 -2.809,3.924 -5.545,8.46 -9.18,11.808 -3.744,3.168 -7.922,5.796 -12.816,7.596 l 20.951,-1.044 7.057,15.156 c 4.535,-3.06 8.604,-6.804 12.061,-11.232 3.455,-4.464 6.479,-11.088 8.639,-15.443 2.016,-4.464 3.096,-8.172 3.385,-11.269 l -22.753,-6.804 z"
         clip-rule="evenodd" />
      <path
         style="fill-rule:evenodd;stroke:#000000;stroke-width:0.036;stroke-miterlimit:10"
         id="path2748"
         stroke-miterlimit="10"
         i:knockout="Off"
         d="m 458.199,221.994 c 21.998,0 39.852,17.854 39.852,39.853 0,21.999 -17.854,39.852 -39.852,39.852 -21.998,0 -39.854,-17.854 -39.854,-39.852 0,-21.998 17.856,-39.853 39.854,-39.853"
         clip-rule="evenodd" />
      <path
         style="fill:#ff0000;fill-opacity:1;fill-rule:evenodd;stroke:#000000;stroke-width:0.036;stroke-miterlimit:10"
         id="path2750"
         stroke-miterlimit="10"
         i:knockout="Off"
         d="m 458.078,224.467 c 20.568,0 37.26,16.692 37.26,37.26 0,20.568 -16.691,37.26 -37.26,37.26 -20.566,0 -37.26,-16.692 -37.26,-37.26 0,-20.568 16.694,-37.26 37.26,-37.26"
         clip-rule="evenodd" />
      <path
         clip-rule="evenodd"
         d="m 458.1986,237.935 c 13.1988,0 23.9112,10.7124 23.9112,23.9118 0,13.1994 -10.7124,23.9112 -23.9112,23.9112 -13.1988,0 -23.9124,-10.7124 -23.9124,-23.9112 0,-13.1988 10.7136,-23.9118 23.9124,-23.9118"
         i:knockout="Off"
         stroke-miterlimit="10"
         id="path3734"
         style="fill-rule:evenodd;stroke:#000000;stroke-width:0.0216;stroke-miterlimit:10" />
      <path
         clip-rule="evenodd"
         d="m 458.078,239.371 c 12.3408,0 22.356,10.0152 22.356,22.356 0,12.3408 -10.0146,22.356 -22.356,22.356 -12.3396,0 -22.356,-10.0152 -22.356,-22.356 0,-12.3408 10.0164,-22.356 22.356,-22.356"
         i:knockout="Off"
         stroke-miterlimit="10"
         id="path3732"
         style="fill:#ffff00;fill-opacity:1;fill-rule:evenodd;stroke:#000000;stroke-width:0.036;stroke-miterlimit:10;stroke-dasharray:none" />
    </g>
  </g>
</svg>
